<svg xmlns="http://www.w3.org/2000/svg" viewBox="0 0 24 24">
	<defs>
		<clipPath id="a">
			<path data-name="Retângulo 50" transform="rotate(180 12 12)" opacity="0" d="M0 0h24v24H0z" />
		</clipPath>
	</defs>
	<g data-name="Grupo de máscara 1" clip-path="url(#a)">
		<path d="M12 24a12 12 0 1 1 12-12 12 12 0 0 1-12 12Zm0-2.4A9.6 9.6 0 1 0 2.4 12a9.6 9.6 0 0 0 9.6 9.6ZM12 6a1.2 1.2 0 0 1 1.2 1.2v6a1.2 1.2 0 1 1-2.4 0v-6A1.2 1.2 0 0 1 12 6Zm0 12a1.2 1.2 0 1 1 1.2-1.2A1.2 1.2 0 0 1 12 18Z" />
	</g>
</svg>
