<svg xml:space="preserve" xmlns="http://www.w3.org/2000/svg" viewBox="0 0 500 500">
	<path clip-rule="evenodd" d="M410.276 31.949c31.335 50.698 48.689 109.576 48.689 167.716 0 25.625-2.633 50.698-9.086 74.957-4.719 16.717-18.437 29.891-36.341 29.891-10.805 0-20.617-4.719-27.254-12.261v3.175c0 20.079-16.267 36.345-36.346 36.345-20.078 0-36.34-16.266-36.34-36.345v18.172c0 20.079-16.262 36.34-36.341 36.34s-36.344-16.261-36.344-36.34v118.112c0 20.078-16.262 36.34-36.34 36.34-20.079 0-36.343-16.262-36.343-36.34V224.465c0-10.08-8.177-18.17-18.17-18.17-1.728 0-3.365.275-4.996.728l-51.338 20.895c-4.906 2.457-10.446 3.913-16.351 3.913-20.079 0-36.342-16.264-36.342-36.343 0-15.083 9.268-28.071 22.35-33.618 58.968-30.434 106.209-67.777 139.281-129.92h207.612z" fill="#010101" fill-rule="evenodd" />
</svg>
