<svg xml:space="preserve" xmlns="http://www.w3.org/2000/svg" viewBox="0 0 128 128">
	<path d="M72.511 90.536a2 2 0 0 0 1.175 2.573l16.745 6.248c-7.854 5.62-17.1 8.594-26.804 8.594-25.435 0-46.127-20.693-46.127-46.128a2 2 0 0 0-4 0c0 27.64 22.487 50.128 50.127 50.128 9.725 0 19.026-2.75 27.111-7.966l-3.087 14.551a2 2 0 1 0 3.912.829l4.69-22.105-21.17-7.898a2 2 0 0 0-2.572 1.174zm-8.136-74.214c-9.728 0-19.03 2.749-27.11 7.963l3.086-14.548a1.999 1.999 0 1 0-3.912-.829l-4.69 22.104 21.17 7.898a1.996 1.996 0 0 0 2.573-1.175 2 2 0 0 0-1.175-2.573l-16.747-6.25c7.85-5.618 17.097-8.591 26.806-8.591 25.434 0 46.125 20.691 46.125 46.125a2 2 0 0 0 4 0c-.001-27.638-22.487-50.124-50.126-50.124z" />
</svg>
