<svg xmlns="http://www.w3.org/2000/svg" viewBox="0 0 36 35.989">
	<path d="M36 18.893c.018 2.61-2.665 5.311-5.8 5.877-2.92.548-5.037-.986-4.928-3.34.128-2.281 2.336-4.69 5.128-5.493 2.972-.844 5.563.416 5.6 2.956ZM25.305 6.098c.109-1.88 2.117-4.271 4.617-5.439 2.665-1.241 4.964-.694 4.964 1.351.018 2.1-2.373 4.763-5.165 5.84-2.609 1.003-4.526.182-4.416-1.752Zm-3.12 5.091c2.081-1.752 4.763-2.208 6-.894 1.3 1.387.4 4.106-1.971 5.913-2.281 1.752-4.909 1.88-5.895.42-.963-1.369-.142-3.76 1.866-5.439Zm.875 10.64a5.933 5.933 0 0 1-4.636 5.019c-2.227.4-3.741-1-3.5-3.084a6.071 6.071 0 0 1 4.179-4.745c2.26-.657 4.085.565 3.957 2.81ZM5.23 25.807a4.78 4.78 0 0 1-3.249 3.869c-1.405.255-2.227-.949-1.916-2.646a4.944 4.944 0 0 1 2.993-3.7c1.461-.425 2.464.67 2.172 2.477ZM18.096 6.351c1.807-1.661 4.088-2.245 5.074-1.186 1.04 1.113.219 3.5-1.807 5.256-1.953 1.679-4.179 1.989-4.982.8-.803-1.127-.037-3.262 1.715-4.87ZM17.827.622c1.588-.109 2.044 1.351.949 3.285-1.077 1.916-3.212 3.413-4.672 3.358-1.387-.055-1.679-1.515-.712-3.267.981-1.75 2.935-3.266 4.435-3.376ZM10.906 35.59c-1.533-.931-1.807-3.23-.675-5.183 1.132-1.971 3.358-3.03 5.055-2.318 1.807.767 2.3 3.212 1 5.42-1.31 2.175-3.755 3.066-5.38 2.081Zm2.355-27.194c1.442.091 1.807 1.716.748 3.6-1.058 1.862-3.03 3.157-4.362 2.884-1.259-.256-1.478-1.825-.529-3.522.949-1.721 2.774-3.053 4.143-2.962Zm-.037 15.659a5.287 5.287 0 0 1-3.833 4.38c-1.734.329-2.847-.985-2.573-2.847a5.4 5.4 0 0 1 3.5-4.161c1.793-.529 3.125.621 2.906 2.628ZM8.807 15.97c1.314.292 1.588 2.044.548 3.869-1.022 1.825-2.884 2.9-4.07 2.427-1.132-.438-1.278-2.117-.365-3.778s2.627-2.792 3.887-2.518Zm-6.716-.492a5.67 5.67 0 0 1 2.829-3.7c1.369-.639 2.336.055 2.1 1.606a5.547 5.547 0 0 1-3.048 3.887c-1.334.488-2.155-.315-1.881-1.793Z" data-name="Grupo 55" fill="#fff" />
</svg>
